<svg width="64" height="53" viewBox="0 0 64 53" fill="none" xmlns="http://www.w3.org/2000/svg">
<path fill-rule="evenodd" clip-rule="evenodd" d="M33.2511 0.798828C22.7895 0.798828 14.3787 9.17758 14.3787 19.4936C14.3787 20.5962 14.5159 21.6905 14.6458 22.7275L14.6508 22.7672L14.7616 23.4304H14.1094L14.0954 23.4309C6.1483 23.709 0 30.1126 0 37.9146C0 45.8633 6.56509 52.3988 14.6511 52.3988H44.7277C55.0535 52.3988 63.6 44.0238 63.6 33.7041C63.6 26.1397 59.0497 19.4108 52.1726 16.3926L52.1601 16.3871L51.8906 16.2796L51.8458 16.0563L51.8449 16.0515C50.1875 7.24764 42.3334 0.798828 33.2511 0.798828ZM21.8389 29.4553L24.1948 25.9304H22.9189C22.8712 25.9022 22.8177 25.8761 22.7583 25.8548C21.5249 25.0568 20.1817 24.5262 18.8722 24.1322L18.5638 24.0092L18.4448 23.7124C18.0671 22.3211 17.8255 20.963 17.8255 19.6251C17.8255 11.2657 24.8399 4.37251 33.383 4.37251C36.527 4.37251 39.528 5.24869 42.1528 7.1188C44.7891 8.99703 46.6712 11.4978 47.8044 14.5119L48.13 15.378L47.4444 15.2926C47.223 15.2085 46.9981 15.1761 46.8056 15.1601C46.5743 15.1409 46.315 15.1409 46.0678 15.1409H46.0468C43.7321 15.1409 40.7766 15.677 39.3331 15.9387L39.1961 15.9636L39.094 16.0145C39.0918 16.0154 39.0739 16.0231 39.0295 16.0347C38.9784 16.0482 38.9199 16.0601 38.8329 16.0774L38.8056 16.0828C38.6616 16.1112 38.4017 16.1624 38.1706 16.2777L37.5194 16.6024L38.7154 19.704L39.4396 19.4632C40.179 19.2174 40.7946 19.0939 41.4544 18.9623L41.4813 18.9569L41.5079 18.9497C42.8999 18.5711 44.0162 18.4515 44.7277 18.4515C46.456 18.4515 48.0804 18.8195 49.7583 19.3339C56.0278 21.4651 60.1532 27.2134 60.1532 33.7041C60.1532 42.0719 53.2622 48.9567 44.7277 48.9567H14.6511C8.48947 48.9567 3.44681 43.9125 3.44681 37.9146C3.44681 31.7909 8.48365 26.8725 14.6511 26.8725C15.6652 26.8725 17.2431 27.3366 19.6383 28.2657L19.6853 28.2839L19.7341 28.2961C20.1877 28.4092 20.7421 28.6349 21.1633 28.9499L21.8389 29.4553Z" fill="#418FF7"/>
</svg>
