<svg width="68" height="53" viewBox="0 0 68 53" fill="none" xmlns="http://www.w3.org/2000/svg">
<path d="M52 0.398438H0V39.3075H43V35.3075H4V4.39844H48V10.3984H52V0.398438Z" fill="#418FF7"/>
<path d="M12.9091 48.3984H19.6364V39.4893H23.6364V48.3984H28.3636V39.4893H32.3636V48.3984H39.0909V52.3984H12.9091V48.3984Z" fill="#418FF7"/>
<path fill-rule="evenodd" clip-rule="evenodd" d="M43 52.3984V9.39844H68V52.3984H43ZM46.5714 44.5803H64.4286V13.3984H46.5714V44.5803ZM56 50.3984C57.1046 50.3984 58 49.503 58 48.3984C58 47.2939 57.1046 46.3984 56 46.3984C54.8954 46.3984 54 47.2939 54 48.3984C54 49.503 54.8954 50.3984 56 50.3984Z" fill="#418FF7"/>
</svg>
