<svg width="32" height="32" viewBox="0 0 32 32" fill="none" xmlns="http://www.w3.org/2000/svg">
<path d="M18.4962 12.3124L16.7628 11.6032L13.5038 19.8186L15.2372 20.5277L18.4962 12.3124Z" fill="#2677E3"/>
<path d="M24.7965 16.0645L20.9106 12.1091L19.5727 13.447L22.1912 16.0655L19.5695 18.6871L20.9802 20.0195L24.7965 16.0645Z" fill="#2677E3"/>
<path d="M12.4273 13.447L11.0914 12.1111L7.06767 16.0655L11.0914 20.0198L12.4273 18.6839L9.80885 16.0655L12.4273 13.447Z" fill="#2677E3"/>
<path fill-rule="evenodd" clip-rule="evenodd" d="M20.0861 0H11.7758L11.9088 2.99215C11.1867 3.2386 10.465 3.53967 9.74393 3.89521L7.55207 1.8362L1.76729 7.62098L3.8907 9.74439C3.53446 10.4137 3.23354 11.137 2.98765 11.9139H0V20.2206L2.99127 20.1541C3.2375 20.876 3.53832 21.5973 3.89357 22.3182L1.76729 24.4445L7.54912 30.2263L8.25339 29.6003L9.74439 28.1093C10.4137 28.4655 11.137 28.7665 11.9139 29.0123V32H20.1515V29.0096C20.8743 28.7632 21.5965 28.4621 22.3182 28.1064L24.3776 30.1658L29.5996 25.0777L30.2263 24.3726L28.1093 22.2556C28.4659 21.5855 28.7671 20.8614 29.0132 20.0835L32 20.0171V11.8449L29.0087 11.9114C28.7625 11.1895 28.4617 10.4681 28.1064 9.74726L30.2989 7.55479L25.0796 2.40212L24.3726 1.77369L22.2556 3.8907C21.5863 3.53446 20.863 3.23354 20.0861 2.98765V0ZM27.6773 18.2636H30.0466V13.8018H27.6118L25.7631 9.35134L27.4935 7.62098L24.379 4.5065L22.6467 6.23886L21.9591 5.93326L21.9581 5.93283L18.2664 4.32193L18.2024 1.95336H13.7364V4.4494L9.4199 6.43634L7.55552 4.57196L4.44104 7.68644L6.23792 9.48333L4.32006 13.9355L1.8879 13.8715V18.3291H4.32125L6.23876 22.7805L4.44309 24.512L7.55552 27.6244L9.28588 25.8941L13.7364 27.7427V30.1776H18.1941L18.13 27.6778L22.6472 25.8298L24.4425 27.561L27.559 24.4445L25.8286 22.7141L27.6773 18.2636Z" fill="#2677E3"/>
</svg>
