<svg width="32" height="32" viewBox="0 0 32 32" fill="none" xmlns="http://www.w3.org/2000/svg">
<path fill-rule="evenodd" clip-rule="evenodd" d="M20.5258 3.76576L9.93427 0L0 4.03088L0.0677811 32L10.0743 28.4541L20.451 31.8046L32 28.5434L31.8644 0.437051L20.5258 3.76576ZM11.0342 18.0467V2.71664L19.4919 5.61816V20.7504L11.0342 18.0467ZM2.05861 5.40776L2.82793 5.10554L8.97581 2.7921V18.1232L2.05861 20.8707V5.40776ZM21.5503 20.7552V5.6219L29.8759 3.05102L30.007 18.2496L21.5503 20.7552ZM11.0342 26.5984V20.2257L19.4919 22.9294V29.3021L11.0342 26.5984ZM2.05861 29.2234V23.1265L8.97581 20.379V26.6721L2.05861 29.2234ZM21.5503 29.3053V22.932L30.0081 20.4262V26.7335L21.5503 29.3053Z" fill="#2677E3"/>
</svg>
