<svg width="32" height="32" viewBox="0 0 32 32" fill="none" xmlns="http://www.w3.org/2000/svg">
<path d="M32 15.68V15.552C31.744 7.36 25.344 0.64 17.28 0.064C17.024 0.064 16.832 0 16.576 0H16.512H16.128H15.744H15.68C15.424 0 15.168 0 14.976 0.064C6.656 0.64 0.256 7.36 0 15.552V15.68V15.744V16C0 24.384 6.528 31.36 14.72 31.936C14.976 31.936 15.168 32 15.424 32H16.448C16.704 32 16.96 32 17.152 31.936C25.472 31.36 32 24.384 32 16V15.744V15.68ZM28.672 21.952H25.216C25.6 20.288 25.792 18.56 25.856 16.704H30.016C29.888 18.56 29.376 20.352 28.672 21.952ZM17.024 29.952V23.936H22.464C21.248 27.328 19.264 29.696 17.024 29.952ZM9.536 23.936H14.976V29.952C12.736 29.696 10.752 27.328 9.536 23.936ZM2.048 16.64H6.208C6.272 18.496 6.464 20.288 6.848 21.888H3.328C2.624 20.352 2.112 18.56 2.048 16.64ZM3.712 9.28H6.976C6.528 10.944 6.272 12.736 6.208 14.656H2.048C2.24 12.736 2.816 10.944 3.712 9.28ZM14.976 2.048V7.296H9.792C11.072 4.352 12.928 2.304 14.976 2.048ZM22.208 7.296H17.024V1.984C19.072 2.304 20.928 4.352 22.208 7.296ZM22.848 9.28C23.296 10.944 23.616 12.736 23.744 14.656H17.024V9.28H22.848ZM14.976 9.28V14.656H8.192C8.32 12.736 8.576 10.944 9.088 9.28H14.976ZM8.192 16.64H14.976V21.888H8.832C8.448 20.352 8.256 18.56 8.192 16.64ZM17.024 21.952V16.64H23.808C23.744 18.496 23.552 20.288 23.104 21.888H17.024V21.952ZM25.792 14.656C25.728 12.736 25.472 10.944 25.024 9.28H28.288C29.184 10.88 29.76 12.736 29.952 14.656H25.792ZM26.944 7.296H24.32C23.808 5.888 23.104 4.608 22.4 3.648C24.192 4.48 25.728 5.76 26.944 7.296ZM9.536 3.584C8.832 4.672 8.128 5.824 7.616 7.232H4.992C6.272 5.76 7.808 4.48 9.536 3.584ZM4.48 23.936H7.36C7.872 25.664 8.704 27.136 9.536 28.416C7.552 27.328 5.824 25.792 4.48 23.936ZM22.464 28.416C23.36 27.2 24.064 25.664 24.64 23.936H27.52C26.176 25.792 24.448 27.328 22.464 28.416Z" fill="#2677E3"/>
</svg>
