<svg width="32" height="32" viewBox="0 0 32 32" fill="none" xmlns="http://www.w3.org/2000/svg">
<path fill-rule="evenodd" clip-rule="evenodd" d="M16.0969 0C14.8757 0 13.6545 0.51201 12.7547 1.34403C11.8548 2.24004 11.3406 3.39207 11.3406 4.67209C11.3406 5.88811 11.8548 7.10414 12.7547 8.00016C13.6545 8.89617 14.8114 9.34418 16.0969 9.34418C17.3181 9.34418 18.5393 8.83217 19.4392 8.00016C20.339 7.10414 20.8532 5.95212 20.8532 4.67209C20.8532 3.45607 20.339 2.24004 19.4392 1.34403C18.5393 0.51201 17.3181 0 16.0969 0ZM16.0969 7.42415C15.3899 7.42415 14.6829 7.16814 14.1687 6.65613C13.6545 6.14412 13.3974 5.44011 13.3974 4.73609C13.3974 4.03208 13.6545 3.32807 14.1687 2.81606C14.6829 2.30405 15.3899 2.04804 16.0969 2.04804C16.8039 2.04804 17.511 2.30405 18.0251 2.81606C18.5393 3.32807 18.7964 4.03208 18.7964 4.73609C18.7964 5.44011 18.5393 6.14412 18.0251 6.65613C17.511 7.10414 16.8039 7.42415 16.0969 7.42415Z" fill="#2677E3"/>
<path fill-rule="evenodd" clip-rule="evenodd" d="M16.9333 10.5596H15.2621C13.3982 10.5596 11.5985 11.3276 10.313 12.6076C8.96327 13.9516 8.25625 15.6797 8.25625 17.5357V18.8157H24.0677V17.5357C24.0677 15.6797 23.2964 13.8876 22.0109 12.6076C20.5969 11.3276 18.7972 10.5596 16.9333 10.5596ZM10.313 16.8957C10.5058 15.6797 11.0843 14.5917 11.9842 13.8236C12.884 13.0556 14.0409 12.6076 15.2621 12.6076H16.9333C18.1545 12.6076 19.3114 13.0556 20.2113 13.8236C21.1111 14.5917 21.7538 15.6797 21.8824 16.8957H10.313Z" fill="#2677E3"/>
<path fill-rule="evenodd" clip-rule="evenodd" d="M15.0678 25.7279V21.7598H17.1246V25.7279C18.0887 26.0479 18.86 26.8159 19.1814 27.7759C19.5028 28.7359 19.3099 29.824 18.7315 30.656C18.0887 31.488 17.1246 32 16.0962 32C15.0678 32 14.0395 31.488 13.461 30.656C12.8825 29.824 12.6897 28.7359 13.0111 27.7759C13.3324 26.8159 14.1037 26.0479 15.0678 25.7279ZM15.1964 29.632C15.4535 29.888 15.7749 30.016 16.0962 30.016C16.4176 30.016 16.739 29.888 16.9961 29.696C17.2532 29.44 17.3817 29.1839 17.3817 28.7999C17.3817 28.4159 17.2532 28.1599 16.9961 27.9039C16.739 27.6479 16.4176 27.5199 16.0962 27.5199C15.7749 27.5199 15.4535 27.6479 15.1964 27.8399C14.9393 28.0959 14.8107 28.3519 14.8107 28.7359C14.8107 29.1199 14.9393 29.3759 15.1964 29.632Z" fill="#2677E3"/>
<path fill-rule="evenodd" clip-rule="evenodd" d="M31.1999 23.68C30.6857 23.168 30.1072 22.9119 29.4002 22.7839C28.7575 22.6559 28.0505 22.7839 27.4077 23.104L24.5797 20.2879L23.1656 21.6959L25.9294 24.512C25.5438 25.216 25.4795 26.048 25.6723 26.816C25.8651 27.584 26.3793 28.2241 27.0221 28.6721C27.6648 29.1201 28.5004 29.2481 29.2717 29.1201C30.043 28.9921 30.75 28.6081 31.2642 27.968C31.7784 27.328 32.0355 26.56 31.9712 25.792C32.0997 24.96 31.7784 24.256 31.1999 23.68ZM29.7859 26.816C29.5288 27.072 29.2717 27.2 28.9503 27.2C28.6289 27.2 28.3076 27.072 28.1147 26.816C27.8576 26.56 27.7291 26.304 27.7291 25.984C27.7291 25.664 27.8576 25.344 28.1147 25.152C28.3718 24.896 28.6289 24.768 28.9503 24.768C29.2717 24.768 29.5931 24.896 29.7859 25.152C30.043 25.408 30.1715 25.664 30.1715 25.984C30.1715 26.24 30.043 26.56 29.7859 26.816Z" fill="#2677E3"/>
<path fill-rule="evenodd" clip-rule="evenodd" d="M1.76314 23.0399C2.72725 22.5919 3.81992 22.5919 4.71976 23.0399L7.54782 20.2238L8.96186 21.6319L6.13379 24.3839C6.58371 25.3439 6.58371 26.432 6.13379 27.328C5.68387 28.224 4.78403 28.864 3.75564 29.056C2.72725 29.248 1.63459 28.864 0.927576 28.16C0.220559 27.456 -0.100812 26.432 0.0277364 25.4079C0.220559 24.3839 0.863302 23.4879 1.76314 23.0399ZM3.24145 27.136C3.56282 27.136 3.88419 27.008 4.14129 26.816C4.33411 26.56 4.46266 26.24 4.46266 25.9839C4.46266 25.5999 4.33411 25.3439 4.07701 25.0879C3.88419 24.8319 3.56282 24.7039 3.24145 24.7039C2.92008 24.7039 2.59871 24.8319 2.40588 25.0879C2.14879 25.2799 2.02024 25.5999 2.02024 25.9199C2.02024 26.24 2.14879 26.496 2.40588 26.752C2.59871 27.008 2.92008 27.136 3.24145 27.136Z" fill="#2677E3"/>
</svg>
