<svg width="33" height="32" viewBox="0 0 33 32" fill="none" xmlns="http://www.w3.org/2000/svg">
<path fill-rule="evenodd" clip-rule="evenodd" d="M16.2547 0L32.5094 8.19106L24.7612 12.0955L32.5094 16L24.7612 19.9045L32.5094 23.8089L16.2547 32L0 23.8089L7.74821 19.9045L0 16L7.74821 12.0955L0 8.19106L16.2547 0ZM9.5394 12.9981L9.74868 13.4135L4.61584 16L16.2547 21.865L27.8936 16L22.7607 13.4135L22.97 12.9981L16.2547 16.3821L9.5394 12.9981ZM9.5394 20.8071L9.74868 21.2224L4.61584 23.8089L16.2547 29.674L27.8936 23.8089L22.7607 21.2224L22.97 20.8071L16.2547 24.1911L9.5394 20.8071ZM4.61584 8.19106L16.2547 14.0561L27.8936 8.19106L16.2547 2.32601L4.61584 8.19106Z" fill="#2677E3"/>
</svg>
