<svg width="32" height="32" viewBox="0 0 32 32" fill="none" xmlns="http://www.w3.org/2000/svg">
<path d="M11.625 3.60938H20.4383V5.05937H11.625V3.60938Z" fill="#2677E3"/>
<path d="M11.625 6.97031H20.4383V8.48621H11.625V6.97031Z" fill="#2677E3"/>
<path d="M11.625 10.3328V11.8487H20.4383V10.3328H11.625Z" fill="#2677E3"/>
<path d="M2.87812 13.7578H11.6914V15.2737H2.87812V13.7578Z" fill="#2677E3"/>
<path d="M2.87812 17.1203V18.6362H11.6914V17.1203H2.87812Z" fill="#2677E3"/>
<path d="M2.87812 20.5484H11.6914V22.0643H2.87812V20.5484Z" fill="#2677E3"/>
<path d="M2.87812 23.9094V25.4253H11.6914V23.9094H2.87812Z" fill="#2677E3"/>
<path d="M2.87812 27.2703H11.6914V28.7862H2.87812V27.2703Z" fill="#2677E3"/>
<path fill-rule="evenodd" clip-rule="evenodd" d="M24.5679 0H7.94451L0 7.9612V32H23.465C28.177 32 32 28.168 32 23.4477C32 19.0972 28.7348 15.5339 24.5679 14.9946V0ZM9.4407 9.52513V2.14335H22.4278V15.0649C21.9068 15.1404 21.3868 15.265 20.8681 15.4382C17.4557 16.5333 14.9299 19.7476 14.9299 23.5795C14.9299 26.116 16.0473 28.441 17.8162 29.9885H2.0744V9.52513H9.4407ZM7.30053 7.31587H3.56928L7.30053 3.57678V7.31587ZM24.5022 22.409V17.1498C27.1701 17.5879 29.3122 19.7343 29.7491 22.409H24.5022ZM17.0043 23.5136C17.0043 20.3059 19.331 17.6796 22.362 17.1535V23.907L27.135 28.69C26.1091 29.4325 24.7837 29.8566 23.3992 29.8566C23.125 29.8566 22.9811 29.8537 22.8409 29.8069L22.8044 29.7947L22.7661 29.7917C19.5739 29.5408 17.0043 26.8419 17.0043 23.5136ZM28.6284 27.2551L25.9313 24.5523H29.7019C29.5897 25.5454 29.2006 26.4574 28.6284 27.2551Z" fill="#2677E3"/>
</svg>
